<svg width="157" height="145" viewBox="0 0 157 145" fill="none" xmlns="http://www.w3.org/2000/svg">
<path d="M155.69 144.125H85.3485L48.7938 107.57L55.8895 100.473C59.8081 104.39 66.1599 104.391 70.078 100.473C73.9962 96.5552 73.9963 90.2026 70.079 86.2839L78.9481 77.4148C82.8668 81.332 89.2195 81.3309 93.1376 77.4128C97.0552 73.4946 97.0549 67.1428 93.1376 63.2244L102.007 54.3552C105.925 58.2735 112.278 58.2737 116.196 54.3552C120.114 50.4367 120.114 44.0833 116.196 40.1648L125.065 31.2957C128.984 35.2137 135.336 35.2139 139.255 31.2957C143.173 27.3772 143.173 21.0238 139.255 17.1052L153.772 2.58765L156.645 2.56812L155.69 144.125Z" fill="#FE3323"/>
<path d="M108.147 36.2881L101.032 43.4033C97.1031 39.475 90.7337 39.4747 86.8047 43.4033C82.8759 47.3323 82.8753 53.7026 86.8037 57.6318L77.9111 66.5254C73.9819 62.5965 67.6118 62.5964 63.6826 66.5254C59.8767 70.3316 59.7573 76.4284 63.3252 80.3779L63.6826 80.7529L54.7891 89.6465C50.8599 85.7176 44.4897 85.7176 40.5605 89.6465C36.7544 93.453 36.6355 99.5505 40.2041 103.5L40.5605 103.875L31.667 112.769C27.7378 108.84 21.3676 108.841 17.4385 112.77C13.6325 116.576 13.5128 122.674 17.0811 126.623L17.4385 126.998L2.87988 141.557L0 141.575L0.955078 0H71.8594L108.147 36.2881Z" fill="#FE3323"/>
</svg>
